<svg xmlns="http://www.w3.org/2000/svg" width="42.084" height="30.113" viewBox="0 0 42.084 30.113">
  <g id="Icon" transform="translate(0.909 0.909)">
    <path id="bb43feb3-3777-4a4c-8814-fb6679ed2e1b" d="M40.332,8.065a5.089,5.089,0,0,0-3.551-3.66c-3.147-.769-15.74-.769-15.74-.769s-12.591,0-15.738.842a5.092,5.092,0,0,0-3.551,3.66A53.109,53.109,0,0,0,.91,17.82a53.154,53.154,0,0,0,.842,9.755A5.089,5.089,0,0,0,5.3,31.09c3.147.842,15.738.842,15.738.842s12.593,0,15.74-.842a5.092,5.092,0,0,0,3.551-3.66,53.038,53.038,0,0,0,.842-9.61A53.185,53.185,0,0,0,40.332,8.065Z" transform="translate(-0.908 -3.636)" fill="none" stroke="#fff" stroke-linecap="round" stroke-linejoin="round" stroke-width="1.818"/>
    <path id="_62aaf3a3-6675-49fd-bb1c-693121400d3b" data-name="62aaf3a3-6675-49fd-bb1c-693121400d3b" d="M8.863,19.678l10.524-5.986L8.863,7.709Z" transform="translate(7.152 0.491)" fill="none" stroke="#fff" stroke-linecap="round" stroke-linejoin="round" stroke-width="1.818"/>
  </g>
</svg>
