<svg xmlns="http://www.w3.org/2000/svg" width="30.91" height="25.799" viewBox="0 0 30.91 25.799">
  <g id="Icon" transform="translate(0.909 1.006)">
    <path id="_079d61a8-2821-4e39-9afe-9c9be25333dc" data-name="079d61a8-2821-4e39-9afe-9c9be25333dc" d="M30,2.731A14.4,14.4,0,0,1,25.85,4.755,5.925,5.925,0,0,0,15.455,8.721v1.324a14.1,14.1,0,0,1-11.9-5.992s-5.289,11.9,6.613,17.192A15.4,15.4,0,0,1,.909,23.89c11.9,6.611,26.448,0,26.448-15.208a5.9,5.9,0,0,0-.106-1.1A10.206,10.206,0,0,0,30,2.731Z" transform="translate(-0.909 -2.718)" fill="none" stroke="#fff" stroke-linecap="round" stroke-linejoin="round" stroke-width="1.818"/>
  </g>
</svg>
