<svg xmlns="http://www.w3.org/2000/svg" width="22.179" height="22.228" viewBox="0 0 22.179 22.228">
  <path id="Path_25" data-name="Path 25" d="M883.624,806.5c-.589-.678-3.549-3.629-3.549-3.629s-.874-1.052-1.846-.33c-.722.544-2.024,1.748-2.336,2.033a23.662,23.662,0,0,1-3.46-2.211,18.416,18.416,0,0,1-3.843-4.6l-.5-.936c.169-.2,1.507-1.614,2.078-2.39a1.375,1.375,0,0,0-.321-1.846s-2.96-2.96-3.629-3.54a1.465,1.465,0,0,0-1.453-.267c-1.418.918-2.88,1.712-2.969,5.537-.009,3.584,2.711,7.276,5.653,10.138,2.942,3.228,6.991,6.465,10.9,6.465,3.825-.089,4.619-1.561,5.537-2.978a1.434,1.434,0,0,0-.259-1.444" transform="translate(-861.796 -788.693)" fill="#fff"/>
</svg>
